<?xml version="1.0" encoding="UTF-8" standalone="no"?>
<!-- Created with Inkscape (http://www.inkscape.org/) -->
<svg
   xmlns:dc="http://purl.org/dc/elements/1.1/"
   xmlns:cc="http://creativecommons.org/ns#"
   xmlns:rdf="http://www.w3.org/1999/02/22-rdf-syntax-ns#"
   xmlns:svg="http://www.w3.org/2000/svg"
   xmlns="http://www.w3.org/2000/svg"
   xmlns:sodipodi="http://sodipodi.sourceforge.net/DTD/sodipodi-0.dtd"
   xmlns:inkscape="http://www.inkscape.org/namespaces/inkscape"
   width="990"
   height="765"
   id="svg2"
   sodipodi:version="0.32"
   inkscape:version="0.46"
   version="1.0"
   sodipodi:docname="chassis-pattern.svg"
   inkscape:output_extension="org.inkscape.output.svg.inkscape">
  <defs
     id="defs4">
    <inkscape:perspective
       sodipodi:type="inkscape:persp3d"
       inkscape:vp_x="0 : 526.18109 : 1"
       inkscape:vp_y="0 : 1000 : 0"
       inkscape:vp_z="744.09448 : 526.18109 : 1"
       inkscape:persp3d-origin="372.04724 : 350.78739 : 1"
       id="perspective10" />
  </defs>
  <sodipodi:namedview
     id="base"
     pagecolor="#ffffff"
     bordercolor="#666666"
     borderopacity="1.0"
     gridtolerance="10000"
     guidetolerance="10"
     objecttolerance="10"
     inkscape:pageopacity="0.0"
     inkscape:pageshadow="2"
     inkscape:zoom="0.8989899"
     inkscape:cx="495"
     inkscape:cy="382.5"
     inkscape:document-units="in"
     inkscape:current-layer="layer1"
     showgrid="false"
     showguides="true"
     inkscape:guide-bbox="true"
     inkscape:snap-global="false"
     inkscape:window-width="1280"
     inkscape:window-height="968"
     inkscape:window-x="-4"
     inkscape:window-y="-4">
    <inkscape:grid
       type="xygrid"
       id="grid3163"
       visible="true"
       enabled="true" />
  </sodipodi:namedview>
  <metadata
     id="metadata7">
    <rdf:RDF>
      <cc:Work
         rdf:about="">
        <dc:format>image/svg+xml</dc:format>
        <dc:type
           rdf:resource="http://purl.org/dc/dcmitype/StillImage" />
      </cc:Work>
    </rdf:RDF>
  </metadata>
  <g
     inkscape:label="Layer 1"
     inkscape:groupmode="layer"
     id="layer1">
    <rect
       style="opacity:1;fill:#ffffff;fill-opacity:1;stroke:#000000;stroke-width:1;stroke-miterlimit:4;stroke-dasharray:none;stroke-opacity:1"
       id="rect2383"
       width="583.65668"
       height="538.65668"
       x="201.70753"
       y="111.30649" />
    <rect
       style="opacity:1;fill:#ffffff;fill-opacity:1;stroke:#000000;stroke-width:1;stroke-miterlimit:4;stroke-dasharray:none;stroke-opacity:1"
       id="rect3155"
       width="90"
       height="45"
       x="-875.26825"
       y="604.91571"
       transform="scale(-1,1)" />
    <rect
       y="537.24445"
       x="785.32581"
       height="67.5"
       width="115.65"
       id="rect3157"
       style="opacity:1;fill:#ffffff;fill-opacity:1;stroke:#000000;stroke-width:1;stroke-miterlimit:4;stroke-dasharray:none;stroke-opacity:1" />
    <path
       sodipodi:type="arc"
       style="opacity:1;fill:#ffffff;fill-opacity:1;stroke:#000000;stroke-width:1.07365799;stroke-miterlimit:4;stroke-dasharray:none;stroke-opacity:1"
       id="path3159"
       sodipodi:cx="13.070225"
       sodipodi:cy="705.48877"
       sodipodi:rx="7.2303371"
       sodipodi:ry="7.2303371"
       d="M 20.300562,705.48877 A 7.2303371,7.2303371 0 1 1 5.8398876,705.48877 A 7.2303371,7.2303371 0 1 1 20.300562,705.48877 z"
       transform="matrix(-0.9313954,0,0,0.9313953,869.52185,-29.604622)" />
    <rect
       transform="scale(-1,-1)"
       y="-156.37906"
       x="-875.26819"
       height="45"
       width="90"
       id="rect3165"
       style="opacity:1;fill:#ffffff;fill-opacity:1;stroke:#000000;stroke-width:1;stroke-miterlimit:4;stroke-dasharray:none;stroke-opacity:1" />
    <path
       transform="matrix(-0.9313954,0,0,-0.9313953,869.52179,790.89937)"
       d="M 20.300562,705.48877 A 7.2303371,7.2303371 0 1 1 5.8398876,705.48877 A 7.2303371,7.2303371 0 1 1 20.300562,705.48877 z"
       sodipodi:ry="7.2303371"
       sodipodi:rx="7.2303371"
       sodipodi:cy="705.48877"
       sodipodi:cx="13.070225"
       id="path3169"
       style="opacity:1;fill:#ffffff;fill-opacity:1;stroke:#000000;stroke-width:1.07365799;stroke-miterlimit:4;stroke-dasharray:none;stroke-opacity:1"
       sodipodi:type="arc" />
    <path
       id="path3191"
       style="fill:#ffffff;fill-opacity:1;stroke:#000000;stroke-width:1.10643399;stroke-miterlimit:4;stroke-opacity:1"
       d="M 883.52219,576.53141 C 879.91497,576.53141 805.72075,576.53141 802.11354,576.53141 C 798.50633,576.53141 795.57873,573.60381 795.57873,569.99659 C 795.57873,566.38937 798.50633,563.46178 802.11354,563.46178 C 805.72075,563.46178 879.91497,563.46178 883.52219,563.46178 C 887.12941,563.46178 890.057,566.38937 890.057,569.99659 C 890.057,573.60381 887.12941,576.53141 883.52219,576.53141 z"
       sodipodi:nodetypes="ccsccsc" />
    <rect
       style="opacity:1;fill:#ffffff;fill-opacity:1;stroke:#000000;stroke-width:1;stroke-miterlimit:4;stroke-dasharray:none;stroke-opacity:1"
       id="rect3198"
       width="115.65"
       height="67.5"
       x="785.32581"
       y="269.1658" />
    <path
       sodipodi:nodetypes="ccsccsc"
       d="M 883.52219,308.45276 C 879.91497,308.45276 805.72075,308.45276 802.11354,308.45276 C 798.50633,308.45276 795.57873,305.52516 795.57873,301.91794 C 795.57873,298.31072 798.50633,295.38313 802.11354,295.38313 C 805.72075,295.38313 879.91497,295.38313 883.52219,295.38313 C 887.12941,295.38313 890.057,298.31072 890.057,301.91794 C 890.057,305.52516 887.12941,308.45276 883.52219,308.45276 z"
       style="fill:#ffffff;fill-opacity:1;stroke:#000000;stroke-width:1.10643399;stroke-miterlimit:4;stroke-opacity:1"
       id="path3200" />
    <rect
       y="604.91571"
       x="111.66114"
       height="45"
       width="90"
       id="rect3202"
       style="opacity:1;fill:#ffffff;fill-opacity:1;stroke:#000000;stroke-width:1;stroke-miterlimit:4;stroke-dasharray:none;stroke-opacity:1" />
    <rect
       style="opacity:1;fill:#ffffff;fill-opacity:1;stroke:#000000;stroke-width:1;stroke-miterlimit:4;stroke-dasharray:none;stroke-opacity:1"
       id="rect3204"
       width="115.65"
       height="67.5"
       x="-201.52214"
       y="537.24445"
       transform="scale(-1,1)" />
    <path
       transform="matrix(0.9313954,0,0,0.9313953,117.40753,-29.604622)"
       d="M 20.300562,705.48877 A 7.2303371,7.2303371 0 1 1 5.8398876,705.48877 A 7.2303371,7.2303371 0 1 1 20.300562,705.48877 z"
       sodipodi:ry="7.2303371"
       sodipodi:rx="7.2303371"
       sodipodi:cy="705.48877"
       sodipodi:cx="13.070225"
       id="path3206"
       style="opacity:1;fill:#ffffff;fill-opacity:1;stroke:#000000;stroke-width:1.07365799;stroke-miterlimit:4;stroke-dasharray:none;stroke-opacity:1"
       sodipodi:type="arc" />
    <rect
       style="opacity:1;fill:#ffffff;fill-opacity:1;stroke:#000000;stroke-width:1;stroke-miterlimit:4;stroke-dasharray:none;stroke-opacity:1"
       id="rect3208"
       width="90"
       height="45"
       x="111.57976"
       y="-156.37906"
       transform="scale(1,-1)" />
    <path
       sodipodi:type="arc"
       style="opacity:1;fill:#ffffff;fill-opacity:1;stroke:#000000;stroke-width:1.07365799;stroke-miterlimit:4;stroke-dasharray:none;stroke-opacity:1"
       id="path3210"
       sodipodi:cx="13.070225"
       sodipodi:cy="705.48877"
       sodipodi:rx="7.2303371"
       sodipodi:ry="7.2303371"
       d="M 20.300562,705.48877 A 7.2303371,7.2303371 0 1 1 5.8398876,705.48877 A 7.2303371,7.2303371 0 1 1 20.300562,705.48877 z"
       transform="matrix(0.9313954,0,0,-0.9313953,117.32614,790.89937)" />
    <path
       sodipodi:nodetypes="ccsccsc"
       d="M 103.32574,576.53141 C 106.93296,576.53141 181.12718,576.53141 184.73439,576.53141 C 188.3416,576.53141 191.2692,573.60381 191.2692,569.99659 C 191.2692,566.38937 188.3416,563.46178 184.73439,563.46178 C 181.12718,563.46178 106.93296,563.46178 103.32574,563.46178 C 99.718523,563.46178 96.790933,566.38937 96.790933,569.99659 C 96.790933,573.60381 99.718523,576.53141 103.32574,576.53141 z"
       style="fill:#ffffff;fill-opacity:1;stroke:#000000;stroke-width:1.10643399;stroke-miterlimit:4;stroke-opacity:1"
       id="path3212" />
    <rect
       y="269.1658"
       x="-201.52214"
       height="67.5"
       width="115.65"
       id="rect3214"
       style="opacity:1;fill:#ffffff;fill-opacity:1;stroke:#000000;stroke-width:1;stroke-miterlimit:4;stroke-dasharray:none;stroke-opacity:1"
       transform="scale(-1,1)" />
    <path
       id="path3216"
       style="fill:#ffffff;fill-opacity:1;stroke:#000000;stroke-width:1.10643399;stroke-miterlimit:4;stroke-opacity:1"
       d="M 103.32574,308.45276 C 106.93296,308.45276 181.12718,308.45276 184.73439,308.45276 C 188.3416,308.45276 191.2692,305.52516 191.2692,301.91794 C 191.2692,298.31072 188.3416,295.38313 184.73439,295.38313 C 181.12718,295.38313 106.93296,295.38313 103.32574,295.38313 C 99.718523,295.38313 96.790933,298.31072 96.790933,301.91794 C 96.790933,305.52516 99.718523,308.45276 103.32574,308.45276 z"
       sodipodi:nodetypes="ccsccsc" />
  </g>
</svg>
